<svg xmlns="http://www.w3.org/2000/svg" version="1.1" width="512px" height="512px" style="shape-rendering:geometricPrecision; text-rendering:geometricPrecision; image-rendering:optimizeQuality; fill-rule:evenodd; clip-rule:evenodd" xmlns:xlink="http://www.w3.org/1999/xlink">
<g><path style="opacity:0.951" fill="#0f617e" d="M 364.5,263.5 C 354.175,261.726 344.508,258.393 335.5,253.5C 343.906,205.19 327.906,167.357 287.5,140C 245.554,117.662 205.554,120.662 167.5,149C 130.888,182.948 121.055,223.448 138,270.5C 157.542,310.359 189.542,331.359 234,333.5C 241.904,333.538 249.738,332.871 257.5,331.5C 259.136,332.749 260.303,334.416 261,336.5C 263.308,343.758 265.808,350.925 268.5,358C 267.944,358.383 267.611,358.883 267.5,359.5C 202.973,372.282 152.807,351.282 117,296.5C 93.6667,251.833 93.6667,207.167 117,162.5C 151.09,109.331 199.59,87.8307 262.5,98C 313.01,110.843 346.51,142.009 363,191.5C 369.602,215.38 370.102,239.38 364.5,263.5 Z"/></g>
<g><path style="opacity:0.951" fill="#10617e" d="M 311.5,245.5 C 302.444,242.982 293.444,240.149 284.5,237C 283.619,236.292 282.953,235.458 282.5,234.5C 282.268,204.77 267.602,186.937 238.5,181C 211.008,180.819 193.508,193.986 186,220.5C 184.467,254.303 200.467,273.636 234,278.5C 235.592,278.395 237.092,278.061 238.5,277.5C 239.458,277.953 240.292,278.619 241,279.5C 244.149,288.444 246.982,297.444 249.5,306.5C 205.934,312.036 175.767,294.703 159,254.5C 150.047,221.804 157.547,193.637 181.5,170C 210.236,148.03 240.903,145.03 273.5,161C 303.883,180.949 316.549,209.116 311.5,245.5 Z"/></g>
<g><path style="opacity:1" fill="#e93b28" d="M 282.5,234.5 C 282.953,235.458 283.619,236.292 284.5,237C 293.444,240.149 302.444,242.982 311.5,245.5C 319.574,247.969 327.574,250.636 335.5,253.5C 344.508,258.393 354.175,261.726 364.5,263.5C 372.321,265.38 379.154,269.047 385,274.5C 386.18,276.86 387.347,279.193 388.5,281.5C 387.588,286.434 385.755,291.1 383,295.5C 377.5,301 372,306.5 366.5,312C 369.432,315.442 372.765,318.275 376.5,320.5C 384.742,330.246 393.575,339.579 403,348.5C 404.456,351.076 405.623,353.742 406.5,356.5C 405.657,360.469 404.491,364.469 403,368.5C 393.167,378.333 383.333,388.167 373.5,398C 366.473,401.282 359.473,401.282 352.5,398C 340.653,385.986 328.653,374.152 316.5,362.5C 309.984,368.851 303.317,375.017 296.5,381C 288.106,384.111 280.773,382.611 274.5,376.5C 271.99,370.985 269.656,365.319 267.5,359.5C 267.611,358.883 267.944,358.383 268.5,358C 265.808,350.925 263.308,343.758 261,336.5C 260.303,334.416 259.136,332.749 257.5,331.5C 255.121,323.075 252.454,314.741 249.5,306.5C 246.982,297.444 244.149,288.444 241,279.5C 240.292,278.619 239.458,277.953 238.5,277.5C 234.426,264.944 230.759,252.277 227.5,239.5C 228.793,229.54 234.46,223.873 244.5,222.5C 257.113,226.705 269.78,230.705 282.5,234.5 Z"/></g>
<g><path style="opacity:1" fill="#ca2205" d="M 388.5,281.5 C 392.509,289.677 393.009,298.01 390,306.5C 385.297,311.035 380.797,315.702 376.5,320.5C 372.765,318.275 369.432,315.442 366.5,312C 372,306.5 377.5,301 383,295.5C 385.755,291.1 387.588,286.434 388.5,281.5 Z"/></g>
<g><path style="opacity:1" fill="#ca2305" d="M 406.5,356.5 C 411.254,365.48 411.42,374.48 407,383.5C 397.5,393 388,402.5 378.5,412C 375.095,413.544 371.595,414.711 368,415.5C 364.405,414.711 360.905,413.544 357.5,412C 345.653,399.986 333.653,388.152 321.5,376.5C 316.015,381.485 310.681,386.652 305.5,392C 288.425,400.796 278.092,395.63 274.5,376.5C 280.773,382.611 288.106,384.111 296.5,381C 303.317,375.017 309.984,368.851 316.5,362.5C 328.653,374.152 340.653,385.986 352.5,398C 359.473,401.282 366.473,401.282 373.5,398C 383.333,388.167 393.167,378.333 403,368.5C 404.491,364.469 405.657,360.469 406.5,356.5 Z"/></g>
</svg>
