<svg xmlns="http://www.w3.org/2000/svg" version="1.1" width="512px" height="512px" style="shape-rendering:geometricPrecision; text-rendering:geometricPrecision; image-rendering:optimizeQuality; fill-rule:evenodd; clip-rule:evenodd" xmlns:xlink="http://www.w3.org/1999/xlink">
<g><path style="opacity:1" fill="#fefefe" d="M -0.5,-0.5 C 170.167,-0.5 340.833,-0.5 511.5,-0.5C 511.5,170.167 511.5,340.833 511.5,511.5C 340.833,511.5 170.167,511.5 -0.5,511.5C -0.5,340.833 -0.5,170.167 -0.5,-0.5 Z"/></g>
<g><path style="opacity:1" fill="#146380" d="M 362.5,263.5 C 352.94,261.318 343.94,257.984 335.5,253.5C 344.728,212.679 333.728,178.179 302.5,150C 257.319,115.352 211.985,115.019 166.5,149C 129.233,183.237 119.566,224.07 137.5,271.5C 154.501,306.688 182.168,327.521 220.5,334C 229.5,334.667 238.5,334.667 247.5,334C 251.09,333.689 254.423,332.856 257.5,331.5C 259.136,332.749 260.303,334.416 261,336.5C 263.8,344.027 265.967,351.361 267.5,358.5C 202.825,371.489 152.658,350.489 117,295.5C 93.3461,246.914 95.3461,199.581 123,153.5C 156.32,109.004 200.82,90.5043 256.5,98C 281.172,101.841 302.839,111.841 321.5,128C 356.295,160.125 371.129,199.959 366,247.5C 365.273,252.97 364.107,258.303 362.5,263.5 Z"/></g>
<g><path style="opacity:1" fill="#f9fbfc" d="M 335.5,253.5 C 327.3,250.433 318.967,247.767 310.5,245.5C 316.331,200.605 298.331,170.438 256.5,155C 224.311,147.083 196.811,154.916 174,178.5C 155.725,203.507 151.725,230.84 162,260.5C 179.984,296.745 209.151,311.745 249.5,305.5C 252.167,314.167 254.833,322.833 257.5,331.5C 254.423,332.856 251.09,333.689 247.5,334C 238.5,334.667 229.5,334.667 220.5,334C 182.168,327.521 154.501,306.688 137.5,271.5C 119.566,224.07 129.233,183.237 166.5,149C 211.985,115.019 257.319,115.352 302.5,150C 333.728,178.179 344.728,212.679 335.5,253.5 Z"/></g>
<g><path style="opacity:1" fill="#156380" d="M 310.5,245.5 C 301.832,242.777 293.165,239.944 284.5,237C 283.944,236.617 283.611,236.117 283.5,235.5C 284.414,216.939 277.747,201.773 263.5,190C 247.22,178.186 229.887,176.52 211.5,185C 207.612,186.879 204.279,189.545 201.5,193C 200.552,193.483 199.552,193.649 198.5,193.5C 198.649,194.552 198.483,195.552 198,196.5C 180.771,217.298 180.104,238.631 196,260.5C 206.223,271.723 218.889,278.056 234,279.5C 235.878,279.304 237.712,278.971 239.5,278.5C 240.117,278.611 240.617,278.944 241,279.5C 243.944,288.165 246.777,296.832 249.5,305.5C 209.151,311.745 179.984,296.745 162,260.5C 151.725,230.84 155.725,203.507 174,178.5C 196.811,154.916 224.311,147.083 256.5,155C 298.331,170.438 316.331,200.605 310.5,245.5 Z"/></g>
<g><path style="opacity:1" fill="#fbfcfd" d="M 283.5,235.5 C 270.586,230.973 257.586,226.64 244.5,222.5C 234.46,223.873 228.793,229.54 227.5,239.5C 230.695,252.75 234.695,265.75 239.5,278.5C 237.712,278.971 235.878,279.304 234,279.5C 218.889,278.056 206.223,271.723 196,260.5C 180.104,238.631 180.771,217.298 198,196.5C 198.483,195.552 198.649,194.552 198.5,193.5C 199.552,193.649 200.552,193.483 201.5,193C 204.279,189.545 207.612,186.879 211.5,185C 229.887,176.52 247.22,178.186 263.5,190C 277.747,201.773 284.414,216.939 283.5,235.5 Z"/></g>
<g><path style="opacity:1" fill="#e93b28" d="M 283.5,235.5 C 283.611,236.117 283.944,236.617 284.5,237C 293.165,239.944 301.832,242.777 310.5,245.5C 318.967,247.767 327.3,250.433 335.5,253.5C 343.94,257.984 352.94,261.318 362.5,263.5C 371.119,264.978 378.619,268.645 385,274.5C 386.18,276.86 387.347,279.193 388.5,281.5C 387.588,286.434 385.755,291.1 383,295.5C 377.5,301 372,306.5 366.5,312C 369.432,315.442 372.765,318.275 376.5,320.5C 384.742,330.246 393.575,339.579 403,348.5C 404.456,351.076 405.623,353.742 406.5,356.5C 405.657,360.469 404.491,364.469 403,368.5C 393.167,378.333 383.333,388.167 373.5,398C 366.473,401.282 359.473,401.282 352.5,398C 340.653,385.986 328.653,374.152 316.5,362.5C 309.984,368.851 303.317,375.017 296.5,381C 288.106,384.111 280.773,382.611 274.5,376.5C 271.796,370.733 269.462,364.733 267.5,358.5C 265.967,351.361 263.8,344.027 261,336.5C 260.303,334.416 259.136,332.749 257.5,331.5C 254.833,322.833 252.167,314.167 249.5,305.5C 246.777,296.832 243.944,288.165 241,279.5C 240.617,278.944 240.117,278.611 239.5,278.5C 234.695,265.75 230.695,252.75 227.5,239.5C 228.793,229.54 234.46,223.873 244.5,222.5C 257.586,226.64 270.586,230.973 283.5,235.5 Z"/></g>
<g><path style="opacity:1" fill="#c92204" d="M 388.5,281.5 C 393.012,290.171 393.179,298.838 389,307.5C 384.63,311.702 380.463,316.036 376.5,320.5C 372.765,318.275 369.432,315.442 366.5,312C 372,306.5 377.5,301 383,295.5C 385.755,291.1 387.588,286.434 388.5,281.5 Z"/></g>
<g><path style="opacity:1" fill="#c92104" d="M 406.5,356.5 C 411.254,365.48 411.42,374.48 407,383.5C 397.833,392.667 388.667,401.833 379.5,411C 372.395,415.25 365.062,415.583 357.5,412C 345.833,400.333 334.167,388.667 322.5,377C 321.5,376.333 320.5,376.333 319.5,377C 313.833,382.667 308.167,388.333 302.5,394C 286.268,399.644 276.934,393.811 274.5,376.5C 280.773,382.611 288.106,384.111 296.5,381C 303.317,375.017 309.984,368.851 316.5,362.5C 328.653,374.152 340.653,385.986 352.5,398C 359.473,401.282 366.473,401.282 373.5,398C 383.333,388.167 393.167,378.333 403,368.5C 404.491,364.469 405.657,360.469 406.5,356.5 Z"/></g>
</svg>
